<svg width="24" height="18" viewBox="0 0 24 18" fill="none" xmlns="http://www.w3.org/2000/svg">
<path fill-rule="evenodd" clip-rule="evenodd" d="M1.33333 1.88882C1.33333 1.39831 1.75903 1 2.2831 1H14.7172C15.2412 1 15.6667 1.39831 15.6667 1.88882C15.6667 2.37933 15.2412 2.77778 14.7172 2.77778H2.2831C1.75903 2.77778 1.33333 2.37933 1.33333 1.88882ZM1.33333 9.00007C1.33333 8.50956 1.75904 8.11111 2.28311 8.11111H21.7172C22.2412 8.11111 22.6667 8.50956 22.6667 9.00007C22.6667 9.49058 22.2412 9.88889 21.7172 9.88889H2.28311C1.75904 9.88889 1.33333 9.49058 1.33333 9.00007ZM2.28311 15.2222C1.75904 15.2222 1.33333 15.6205 1.33333 16.111C1.33333 16.6016 1.75904 17 2.28311 17H14.7172C15.2412 17 15.6667 16.6016 15.6667 16.111C15.6667 15.6205 15.2412 15.2222 14.7172 15.2222H2.28311Z" fill="white"/>
<path d="M2.2831 0.5C1.51468 0.5 0.833328 1.09142 0.833328 1.88882H1.83333C1.83333 1.7052 2.00339 1.5 2.2831 1.5V0.5ZM14.7172 0.5H2.2831V1.5H14.7172V0.5ZM16.1667 1.88882C16.1667 1.09161 15.4858 0.5 14.7172 0.5V1.5C14.9967 1.5 15.1667 1.70501 15.1667 1.88882H16.1667ZM14.7172 3.27778C15.4859 3.27778 16.1667 2.68594 16.1667 1.88882H15.1667C15.1667 2.07273 14.9966 2.27778 14.7172 2.27778V3.27778ZM2.2831 3.27778H14.7172V2.27778H2.2831V3.27778ZM0.833328 1.88882C0.833328 2.68613 1.51458 3.27778 2.2831 3.27778V2.27778C2.00349 2.27778 1.83333 2.07254 1.83333 1.88882H0.833328ZM2.28311 7.61111C1.51458 7.61111 0.833333 8.20276 0.833333 9.00007H1.83333C1.83333 8.81635 2.0035 8.61111 2.28311 8.61111V7.61111ZM21.7172 7.61111H2.28311V8.61111H21.7172V7.61111ZM23.1667 9.00007C23.1667 8.20295 22.4859 7.61111 21.7172 7.61111V8.61111C21.9966 8.61111 22.1667 8.81616 22.1667 9.00007H23.1667ZM21.7172 10.3889C22.4858 10.3889 23.1667 9.79728 23.1667 9.00007H22.1667C22.1667 9.18387 21.9967 9.38889 21.7172 9.38889V10.3889ZM2.28311 10.3889H21.7172V9.38889H2.28311V10.3889ZM0.833333 9.00007C0.833333 9.79747 1.51468 10.3889 2.28311 10.3889V9.38889C2.0034 9.38889 1.83333 9.18369 1.83333 9.00007H0.833333ZM1.83333 16.111C1.83333 15.9274 2.0034 15.7222 2.28311 15.7222V14.7222C1.51468 14.7222 0.833333 15.3136 0.833333 16.111H1.83333ZM2.28311 16.5C2.0035 16.5 1.83333 16.2948 1.83333 16.111H0.833333C0.833333 16.9084 1.51458 17.5 2.28311 17.5V16.5ZM14.7172 16.5H2.28311V17.5H14.7172V16.5ZM15.1667 16.111C15.1667 16.2949 14.9966 16.5 14.7172 16.5V17.5C15.4859 17.5 16.1667 16.9082 16.1667 16.111H15.1667ZM14.7172 15.7222C14.9967 15.7222 15.1667 15.9272 15.1667 16.111H16.1667C16.1667 15.3138 15.4858 14.7222 14.7172 14.7222V15.7222ZM2.28311 15.7222H14.7172V14.7222H2.28311V15.7222Z" fill="white"/>
</svg>
