<svg width="22" height="22" viewBox="0 0 22 22" fill="none" xmlns="http://www.w3.org/2000/svg">
<path fill-rule="evenodd" clip-rule="evenodd" d="M16.5649 14.5423C16.5862 14.5612 16.607 14.5809 16.6274 14.6013L20.8829 18.8568C21.4362 19.41 21.4282 20.2989 20.8652 20.8422C20.3022 21.3855 19.3973 21.3774 18.844 20.8242L14.5885 16.5687C14.5813 16.5614 14.5742 16.5541 14.5671 16.5468C13.0538 17.656 11.1867 18.311 9.16663 18.311C4.11629 18.311 0.0221863 14.2169 0.0221863 9.1666C0.0221863 4.11626 4.11629 0.0221558 9.16663 0.0221558C14.217 0.0221558 18.3111 4.11626 18.3111 9.1666C18.3111 11.1757 17.6632 13.0335 16.5649 14.5423ZM2.42219 9.1666C2.42219 5.44175 5.44178 2.42216 9.16663 2.42216C12.8915 2.42216 15.9111 5.44175 15.9111 9.1666C15.9111 12.8915 12.8915 15.911 9.16663 15.911C5.44178 15.911 2.42219 12.8915 2.42219 9.1666Z" fill="white"/>
</svg>
